<svg viewBox="0 0 410 410" fill="none" xmlns="http://www.w3.org/2000/svg">
<mask id="mask0_1830_37" style="mask-type:alpha" maskUnits="userSpaceOnUse" x="0" y="0" width="410" height="410">
<path d="M205 410C318.218 410 410 318.218 410 205C410 91.7816 318.218 0 205 0C91.7816 0 0 91.7816 0 205C0 318.218 91.7816 410 205 410Z" fill="#1F232E"/>
</mask>
<g mask="url(#mask0_1830_37)">
<path d="M321.441 -26.9547C214.111 -113.785 55.7384 -95.9532 -32.2993 12.8696C-120.337 121.692 -104.701 280.296 2.62997 367.127M322.18 -26.3575C216.767 -111.636 59.941 -92.553 -28.0963 16.2698C-116.134 125.093 -102.044 282.446 3.3681 367.725M322.929 -25.7513C219.427 -109.485 64.1556 -89.1438 -23.882 19.679C-111.919 128.502 -99.3844 284.597 4.11762 368.331M323.668 -25.1541C222.084 -107.335 68.3589 -85.7435 -19.6788 23.0794C-107.716 131.902 -96.7362 286.74 4.85588 368.928M324.406 -24.5567C224.733 -105.192 72.5622 -82.3429 -15.4755 26.4799C-103.513 135.303 -94.0794 288.889 5.5942 369.525M325.155 -23.9505C227.392 -103.04 76.7761 -78.9335 -11.2612 29.8893C-99.2989 138.712 -91.4194 291.041 6.3434 370.131M325.893 -23.3533C230.049 -100.892 80.9794 -75.5331 -7.05815 33.2897C-95.0955 142.113 -88.7632 293.191 7.08153 370.729M326.642 -22.7473C232.708 -98.7396 85.1932 -72.1239 -2.84397 36.6989C-90.8817 145.522 -86.1034 295.342 7.83071 371.335M327.381 -22.15C235.365 -96.5902 89.3966 -68.7235 1.35936 40.099C-86.6781 148.922 -83.4549 297.485 8.56897 371.932M328.119 -21.5529C238.013 -94.4478 93.5999 -65.3231 5.56249 43.4995C-82.475 152.323 -80.7982 299.634 9.30711 372.529M328.868 -20.9466C240.681 -92.2896 97.8144 -61.9137 9.77692 46.9091C-78.2605 155.732 -78.1384 301.786 10.0566 373.136M329.607 -20.3493C243.33 -90.1468 102.018 -58.5134 13.98 50.3095C-74.0574 159.132 -75.4816 303.935 10.795 373.732M330.355 -19.7432C245.99 -87.9953 106.232 -55.1041 18.1943 53.7185C-69.8432 162.542 -72.8221 306.086 11.5441 374.339M331.094 -19.146C248.646 -85.846 110.435 -51.7037 22.3974 57.119C-65.64 165.942 -70.1737 308.229 12.2823 374.936M331.843 -18.5398C251.306 -83.6944 114.649 -48.2943 26.6115 60.5286C-61.4259 169.351 -67.506 310.388 13.0315 375.542M332.576 -17.9469C253.957 -81.5495 118.847 -44.8984 30.8093 63.9244C-57.2282 172.747 -64.8629 312.526 13.7643 376.135M333.326 -17.3409C256.617 -79.398 123.061 -41.4893 35.0237 67.3334C-53.0137 176.157 -62.1949 314.684 14.5138 376.741M334.069 -16.7392C259.271 -77.2509 127.27 -38.0843 39.2325 70.7385C-48.805 179.562 -59.5408 316.831 15.2576 377.343M334.808 -16.1419C261.928 -75.1016 131.481 -34.6773 43.4438 74.1455C-44.5937 182.969 -56.8841 318.981 15.9956 377.94M335.556 -15.5357C264.587 -72.95 135.696 -31.268 47.6582 77.5545C-40.3796 186.378 -54.2164 321.139 16.7449 378.546M336.295 -14.9385C267.244 -70.8007 139.898 -27.8677 51.8608 80.9549C-36.1764 189.778 -51.5679 323.281 17.4832 379.143M337.033 -14.3411C269.892 -68.6579 144.102 -24.4671 56.0642 84.356C-31.9732 193.178 -48.9112 325.431 18.2213 379.741M337.783 -13.7351C272.561 -66.4997 148.316 -21.0579 60.2787 87.765C-27.7586 196.587 -46.2512 327.582 18.9709 380.347M338.521 -13.1379C275.209 -64.3571 152.519 -17.6575 64.482 91.1654C-23.5554 199.988 -43.6028 329.725 19.7091 380.944M339.27 -12.5317C277.868 -62.2055 156.733 -14.2481 68.6958 94.5744C-19.3414 203.397 -40.9352 331.883 20.4581 381.55M340.008 -11.9345C280.525 -60.0561 160.937 -10.8478 72.8992 97.9748C-15.138 206.798 -38.2865 334.026 21.1966 382.148M340.746 -11.3373C283.173 -57.9136 165.14 -7.4475 77.1025 101.375C-10.935 210.198 -35.6299 336.175 21.9347 382.745M341.495 -10.731C285.841 -55.7553 169.354 -4.03816 81.3163 104.785C-6.72106 213.607 -32.9706 338.327 22.6837 383.351M342.234 -10.1338C288.49 -53.6126 173.557 -0.637803 85.5197 108.185C-2.51767 217.008 -30.3219 340.469 23.4222 383.948M342.983 -9.52763C291.157 -51.4543 177.772 2.77158 89.7341 111.594C1.69669 220.417 -27.6539 342.628 24.1715 384.554M343.722 -8.9304C293.806 -49.3117 181.975 6.17194 93.9375 114.995C5.90016 223.818 -25.0052 344.771 24.91 385.151M344.471 -8.32422C296.466 -47.1601 186.189 9.58135 98.1513 118.404C10.1141 227.227 -22.3376 346.928 25.659 385.758M345.209 -7.72698C299.122 -45.0107 190.392 12.9817 102.355 121.804C14.3173 230.627 -19.6892 349.071 26.3971 386.355M345.947 -7.12975C301.771 -42.8682 194.595 16.3819 106.558 125.205C18.5205 234.028 -17.0405 351.214 27.1356 386.952M346.696 -6.52357C304.439 -40.7099 198.809 19.7913 110.772 128.614C22.7345 237.437 -14.3729 353.372 27.8846 387.559M347.435 -5.92634C307.087 -38.5673 203.013 23.1917 114.975 132.015C26.9376 240.837 -11.7246 355.515 28.6228 388.155M348.184 -5.32016C309.755 -36.4089 207.227 26.601 119.19 135.424C31.1523 244.247 -9.05629 357.673 29.3724 388.762M348.922 -4.72293C312.404 -34.2663 211.43 30.0014 123.393 138.824C35.3554 247.647 -6.40788 359.815 30.1106 389.359M349.66 -4.12576C315.053 -32.1237 215.634 33.4017 127.596 142.225C39.5587 251.048 -3.75919 361.958 30.849 389.956M350.41 -3.51971C317.72 -29.9656 219.848 36.8109 131.81 145.634C43.7727 254.457 -1.09162 364.116 31.5981 390.562M351.148 -2.92248C320.369 -27.8229 224.051 40.2116 136.013 149.034C47.976 257.857 1.55679 366.259 32.3361 391.16M351.897 -2.3161C323.037 -25.6644 228.265 43.6212 140.228 152.444C52.1905 261.267 4.22475 368.418 33.0855 391.766M352.636 -1.71887C325.685 -23.5218 232.468 47.021 144.431 155.844C56.3932 264.666 6.87343 370.56 33.824 392.363M353.373 -1.1217C328.333 -21.3793 236.671 50.4214 148.634 159.245C60.5965 268.067 9.52179 372.702 34.5621 392.96M354.123 -0.515453C331.001 -19.2209 240.886 53.8311 152.848 162.654C64.811 271.477 12.1897 374.861 35.3114 393.566M354.861 0.081779C333.65 -17.0783 245.089 57.2315 157.051 166.054C69.0137 274.877 14.8381 377.004 36.0496 394.164M355.61 0.687823C336.318 -14.9201 249.303 60.6405 161.266 169.463C73.2282 278.286 17.4978 379.155 36.799 394.769M356.349 1.28518C338.966 -12.7774 253.506 64.0409 165.469 172.864C77.4315 281.686 20.1544 381.305 37.5371 395.367M357.098 1.89123C341.633 -10.6192 257.72 67.4499 169.683 176.273C81.6454 285.095 22.8137 383.456 38.2861 395.973M357.837 2.4886C344.283 -8.47643 261.924 70.8504 173.887 179.673C85.8494 288.497 25.471 385.605 39.0249 396.571M358.574 3.08583C346.931 -6.33383 266.127 74.2508 178.089 183.074C90.052 291.896 28.1194 387.748 39.763 397.168M359.324 3.69188C349.599 -4.17564 270.341 77.6604 182.304 186.483C94.2666 295.306 30.7791 389.899 40.5124 397.774M360.062 4.28923C352.247 -2.03293 274.545 81.0609 186.507 189.883C98.4699 298.706 33.4357 392.049 41.2505 398.371M360.811 4.89529C354.915 0.125276 278.759 84.4698 190.721 193.293C102.684 302.115 36.095 394.201 41.9995 398.977M361.55 5.49246C357.564 2.26787 282.962 87.8703 194.924 196.693C106.887 305.516 38.752 396.35 42.738 399.574M362.287 6.08969C360.22 4.41718 287.165 91.2707 199.127 200.093C111.09 308.916 41.4004 398.492 43.4761 400.172M363.037 6.69593C362.88 6.56878 291.388 94.6869 203.35 203.509C115.313 312.332 44.0682 400.651 44.2255 400.778M363.776 7.29363C365.529 8.71191 295.591 98.0874 207.554 206.91C119.516 315.733 46.7256 402.8 44.9645 401.376M364.531 7.90455C368.202 10.875 299.811 101.502 211.774 210.324C123.737 319.147 49.391 404.957 45.7194 401.986M365.27 8.50217C370.852 13.018 304.015 104.902 215.978 213.725C127.941 322.548 52.0484 407.106 46.4584 402.584M365.997 9.09078C373.498 15.1587 308.208 108.294 220.17 217.117C132.133 325.939 54.6861 409.241 47.1856 403.173M366.747 9.69723C376.158 17.3105 312.422 111.704 224.385 220.527C136.347 329.349 57.3461 411.393 47.9352 403.779M367.497 10.3039C378.818 19.4625 316.637 115.113 228.599 223.936C140.562 332.759 60.0141 413.551 48.6848 404.386M368.23 10.897C381.47 21.6078 320.835 118.51 232.798 227.332C144.76 336.155 62.6577 415.69 49.4186 404.979M368.98 11.5033C384.13 23.7596 325.05 121.919 237.012 230.742C148.975 339.565 65.3263 417.849 50.1682 405.585M369.729 12.1098C386.798 25.9182 329.264 125.329 241.227 234.151C153.189 342.975 67.9864 420 50.9178 406.192M370.462 12.7029C389.441 28.0567 333.462 128.725 245.425 237.548C157.387 346.371 70.6293 422.139 51.6509 406.785M371.196 13.2962C392.093 30.202 337.66 132.121 249.623 240.944C161.586 349.767 73.2815 424.284 52.384 407.378M371.951 13.907C394.758 32.3582 341.881 135.536 253.843 244.358C165.806 353.181 75.9468 426.44 53.1395 407.989M372.695 14.5091C397.413 34.5057 346.09 138.941 258.053 247.764C170.015 356.586 78.6095 428.594 53.8838 408.591M373.433 15.1067C400.069 36.6554 350.293 142.342 262.256 251.164C174.219 359.987 81.2578 430.738 54.6216 409.189M374.172 15.7044C402.719 38.7986 354.497 145.742 266.459 254.565C178.422 363.388 83.9073 432.88 55.3606 409.786M374.916 16.3063C405.381 40.9526 358.706 149.147 270.669 257.97C182.631 366.793 86.57 435.034 56.105 410.388M375.671 16.9172C408.047 43.1085 362.926 152.561 274.889 261.384C186.851 370.207 89.2353 437.191 56.8598 410.999M376.399 17.506C410.693 45.25 367.119 155.953 279.081 264.776C191.044 373.599 91.8816 439.332 57.5877 411.588M377.149 18.1124C413.353 47.4014 371.334 159.363 283.296 268.185C195.259 377.008 94.5416 441.484 58.3372 412.194M377.904 18.7234C416.018 49.558 375.554 162.777 287.516 271.6C199.479 380.423 97.207 443.64 59.0928 412.805M378.637 19.3165C418.67 51.7034 379.752 166.173 291.714 274.996C203.677 383.819 99.8585 445.785 59.8259 413.398M379.371 19.9096C421.314 53.8416 383.95 169.57 295.912 278.392C207.875 387.215 102.502 447.923 60.559 413.991M380.125 20.5205C423.987 56.0048 388.17 172.984 300.133 281.806C212.095 390.629 105.176 450.087 61.3139 414.603M380.87 21.1226C426.642 58.1522 392.379 176.389 304.342 285.211C216.304 394.034 107.83 452.234 62.0582 415.204M381.603 21.7156C429.285 60.2904 396.577 179.785 308.54 288.608C220.502 397.43 110.474 454.373 62.7913 415.797M382.358 22.3266C431.959 62.4536 400.798 183.199 312.76 292.022C224.723 400.844 113.148 456.536 63.5468 416.409M383.091 22.9198C434.602 64.5924 404.995 186.595 316.958 295.418C228.92 404.241 115.791 458.674 64.2793 417.002M383.835 23.5218C437.265 66.7464 409.204 190 321.167 298.824C233.13 407.646 118.453 460.828 65.0236 417.604M384.574 24.1194C439.914 68.8892 413.408 193.401 325.371 302.224C237.333 411.047 121.103 462.972 65.7627 418.201M385.324 24.7258C442.582 71.0478 417.623 196.81 329.585 305.634C241.548 414.457 123.763 465.123 66.5122 418.808M386.068 25.3279C445.237 73.1952 421.832 200.216 333.795 309.039C245.757 417.862 126.426 467.278 67.2566 419.41M386.793 25.9143C447.88 75.334 426.03 203.612 337.993 312.435C249.955 421.258 129.069 469.416 67.989 420.003M387.547 26.5252C450.545 77.49 430.25 207.026 342.213 315.849C254.175 424.672 131.742 471.579 68.7445 420.614M388.289 27.125C453.197 79.6354 434.449 210.423 346.411 319.245C258.374 428.068 134.386 473.717 69.4777 421.207M389.034 27.727C455.86 81.7894 438.658 213.828 350.621 322.65C262.583 431.473 137.04 475.865 70.222 421.809M389.778 28.3292C458.514 83.9368 442.867 217.233 354.829 326.056C266.792 434.878 139.703 478.019 70.9663 422.411M390.533 28.9401C461.18 86.0934 447.087 220.647 359.05 329.47C271.012 438.293 142.368 480.175 71.7212 423.022M391.258 29.5265C463.823 88.2316 451.285 224.044 363.248 332.866C275.21 441.689 145.012 482.314 72.4543 423.615M392.002 30.1286C466.486 90.3862 455.494 227.449 367.457 336.271C279.419 445.094 147.674 484.468 73.1907 424.21M392.746 30.7306C469.14 92.5336 459.703 230.854 371.665 339.676C283.628 448.499 150.329 486.615 73.9344 424.813M393.499 31.3393C471.803 94.6876 463.912 234.259 375.875 343.082C287.837 451.904 152.991 488.769 74.6787 425.415M394.232 31.9325C474.446 96.8264 468.11 237.655 380.073 346.478C292.035 455.301 155.635 490.908 75.4118 426.008M394.974 32.5322C477.115 98.985 472.325 241.065 384.288 349.887C296.25 458.71 158.296 493.06 76.162 426.615M395.723 33.1387C479.775 101.136 476.54 244.474 388.502 353.297C300.465 462.12 160.964 495.219 76.9116 427.221M396.456 33.7317C482.418 103.275 480.737 247.87 392.7 356.693C304.663 465.516 163.607 497.357 77.6441 427.814M397.2 34.3338C485.073 105.423 484.947 251.276 396.909 360.098C308.872 468.922 166.269 499.511 78.3884 428.416M397.955 34.9447C487.747 107.586 489.167 254.69 401.129 363.513C313.092 472.336 168.935 501.668 79.1439 429.026M398.697 35.5445C490.398 109.731 493.365 258.086 405.328 366.909C317.29 475.732 171.579 503.806 79.8771 429.62M399.422 36.1309C493.041 111.869 497.563 261.483 409.526 370.305C321.488 479.128 174.23 505.951 80.6095 430.213M400.177 36.7418C495.707 114.025 501.783 264.896 413.745 373.719C325.709 482.542 176.895 508.108 81.365 430.824M400.921 37.3442C498.37 116.18 505.992 268.302 417.955 377.124C329.918 485.947 179.558 510.262 82.1094 431.426M401.655 37.9372C501.013 118.318 510.191 271.698 422.153 380.521C334.116 489.343 182.202 512.4 82.8425 432.019M402.409 38.5479C503.679 120.475 514.411 275.112 426.373 383.934C338.336 492.757 184.867 514.557 83.598 432.63M403.151 39.1481C506.33 122.62 518.609 278.508 430.571 387.331C342.534 496.154 187.519 516.702 84.3311 433.223M403.897 39.7522C509.004 124.783 522.828 281.923 434.792 390.745C346.754 499.568 190.184 518.859 85.086 433.835M404.62 40.3366C511.637 126.912 527.016 285.309 438.978 394.132C350.941 502.956 192.825 520.995 85.8086 434.418M405.376 40.9473C514.302 129.069 531.236 288.724 443.199 397.547C355.161 506.37 195.49 523.151 86.5634 435.03" stroke="#0F6FFF" stroke-opacity="0.4" stroke-miterlimit="10"/>
</g>
<circle cx="205" cy="205" r="60" fill="#4660EC"/>
<path d="M209.37 196.213L207.894 193.963L212.146 187.482H221.616L212.375 200.79L209.37 196.213Z" fill="white"/>
<path d="M222.273 223H213.149L207.885 214.928L209.126 213.024L212.163 208.381L222.273 223Z" fill="white"/>
<path d="M208.95 204.422L205.064 210.382L204.992 210.492L196.828 222.999H187.711L200.342 204.722L188.364 187.482H197.834L204.992 198.384L205.306 198.866L208.95 204.422Z" fill="white"/>
</svg>
